<svg id="Layer_1" data-name="Layer 1" xmlns="http://www.w3.org/2000/svg" viewBox="0 0 79.7 79.7">
  <defs>
    <style>
      .cls-1 {
        fill: #fff;
      }
    </style>
  </defs>
  <title>All icons</title>
  <g>
    <circle cx="39.85" cy="39.85" r="39.85"/>
    <g>
      <path class="cls-1" d="M65.21,27.8V26a5.94,5.94,0,0,0-2.47-4.84,3.82,3.82,0,0,0,.34-1.57V18.18a3.84,3.84,0,0,0-7.69,0V19.6s0,.09,0,.13a25.51,25.51,0,0,0-38,32.4,3.83,3.83,0,0,0-1,2.6v1.42a3.82,3.82,0,0,0,.34,1.57,5.94,5.94,0,0,0-2.47,4.84v1.79a1,1,0,0,0,1,1h10a1,1,0,0,0,1-1V62.57A6,6,0,0,0,26,61.39,25.52,25.52,0,0,0,62.7,28.8h1.52a1,1,0,0,0,1-1Zm-7.83-9.62a1.85,1.85,0,0,1,3.7,0V19.6a1.85,1.85,0,0,1-3.7,0ZM63.2,40.84a23.42,23.42,0,0,1-6.11,14.82,25.38,25.38,0,0,0-2.87-2.31,34.81,34.81,0,0,0,2.57-12.51ZM22.31,24c.57.53,1.16,1,1.77,1.5a3.85,3.85,0,0,0-.07.71v1.42a3.82,3.82,0,0,0,.34,1.57,5.94,5.94,0,0,0-2.47,4.84v1.79a1,1,0,0,0,.84,1c-.05.67-.09,1.34-.1,2h-6.4A23.42,23.42,0,0,1,22.31,24Zm7.09-1.31c2.55-3.69,5.85-5.93,9.3-6.29V28.86a23.37,23.37,0,0,1-7-1.38V26.24a3.85,3.85,0,0,0-2.3-3.52Zm-1.54,1.67a1.85,1.85,0,0,1,1.85,1.85v1.42a1.85,1.85,0,1,1-3.7,0V26.24a1.85,1.85,0,0,1,1.85-1.85Zm-2.24,6.39a3.83,3.83,0,0,0,4.49,0,4,4,0,0,1,1.74,3.29v.79h-8v-.79a4,4,0,0,1,1.74-3.29Zm-.9,6.08h8.12a1,1,0,0,0,1-1V34.07a5.94,5.94,0,0,0-2-4.42,25.37,25.37,0,0,0,6.83,1.21v8H24.6c0-.67.06-1.33.11-2Zm16-20.43c3.59.37,6.95,2.7,9.56,6.66a23.81,23.81,0,0,1,1.43,2.5,23.72,23.72,0,0,1-11,3.27Zm-13.51,6A3.84,3.84,0,0,0,25,23.7q-.65-.52-1.26-1.09a23.59,23.59,0,0,1,7.08-4.53,20.59,20.59,0,0,0-3.6,4.37ZM22.61,40.84c0,.61,0,1.23.09,1.84a1,1,0,0,0,1,.92h.07a1,1,0,0,0,.92-1.07c0-.56-.07-1.13-.09-1.69H38.7v8a25.41,25.41,0,0,0-11.81,3.43q-.24-.59-.46-1.21a1,1,0,0,0-1.88.66q.3.84.63,1.64-.61.43-1.2.89A3.84,3.84,0,0,0,19,51.07,23.5,23.5,0,0,1,16.2,40.84Zm29.9,11.42a25.62,25.62,0,0,0-3-1.51q-.56-.23-1.13-.44h4.89q-.32,1-.71,1.95Zm-13.81,11c-4.35-.45-8.35-3.82-11-9.17a23.43,23.43,0,0,1,11-3.26Zm2,0V50.83a23.33,23.33,0,0,1,11,3.26,23.88,23.88,0,0,1-1.44,2.51c-2.61,4-6,6.3-9.56,6.66Zm12-14.94h-8v-.79a4,4,0,0,1,1.74-3.29,3.83,3.83,0,0,0,4.49,0,4,4,0,0,1,1.74,3.29Zm-2.14-7.2a1.85,1.85,0,0,1-3.7,0V39.7a1.85,1.85,0,1,1,3.7,0ZM45.16,42.7a5.94,5.94,0,0,0-2.47,4.84V49q-1-.12-2-.15v-8h4.13v.28a3.83,3.83,0,0,0,.34,1.57ZM18.32,56.17V54.74a1.85,1.85,0,1,1,3.7,0v1.42a1.85,1.85,0,0,1-3.7,0Zm5.63.7A23.68,23.68,0,0,1,26,55.19a21.93,21.93,0,0,0,4.78,6.44,23.47,23.47,0,0,1-6.95-4.4q.05-.18.09-.36Zm28,.83a25.55,25.55,0,0,0,1.45-2.51,23.73,23.73,0,0,1,2.31,1.89,23.57,23.57,0,0,1-7.06,4.52,20.5,20.5,0,0,0,3.3-3.91Zm2.42-12a6,6,0,0,0-2.17-3,3.82,3.82,0,0,0,.34-1.57v-.28H54.8a35.63,35.63,0,0,1-.45,4.81Zm-1.93-6.8a3.84,3.84,0,0,0-7.49,0H40.7v-8a25.74,25.74,0,0,0,11.81-3.44A32.91,32.91,0,0,1,54.8,38.85Zm1-14.41-.09.07A25.47,25.47,0,0,0,51.92,22a20.5,20.5,0,0,0-3.31-3.92,23.46,23.46,0,0,1,6.28,3.82,5.93,5.93,0,0,0-1.43,2.54ZM24.16,63.37h-8v-.79a4,4,0,0,1,1.74-3.29,3.83,3.83,0,0,0,4.49,0,4,4,0,0,1,1.74,3.29Zm39-24.51H56.79A35.87,35.87,0,0,0,55.13,28.8h5.34A23.53,23.53,0,0,1,63.2,38.85Zm0-12h-8V26A4,4,0,0,1,57,22.72a3.83,3.83,0,0,0,4.49,0A4,4,0,0,1,63.22,26Zm0,0"/>
      <path class="cls-1" d="M24.3,48.05a1,1,0,0,0,0-2h0a1,1,0,1,0,0,2Zm0,0"/>
    </g>
  </g>
</svg>
