<?xml version="1.0" encoding="iso-8859-1"?>
<!-- Generator: Adobe Illustrator 23.0.0, SVG Export Plug-In . SVG Version: 6.00 Build 0)  -->
<svg version="1.1" id="&#x421;&#x43B;&#x43E;&#x439;_1"
	 xmlns="http://www.w3.org/2000/svg" xmlns:xlink="http://www.w3.org/1999/xlink" x="0px" y="0px" viewBox="0 0 444.488 639.375" fill="#cd2028"
	 style="enable-background:new 0 0 444.488 639.375;" xml:space="preserve">
<g>
	<path d="M222.242,0C99.699,0,0,99.7,0,222.243C0,376.27,222.461,639.375,222.461,639.375s222.027-270.683,222.027-417.132
		C444.488,99.7,344.793,0,222.242,0L222.242,0z M289.3,287.317c-18.492,18.484-42.773,27.73-67.058,27.73
		c-24.277,0-48.567-9.246-67.051-27.73c-36.976-36.973-36.976-97.133,0-134.109c17.906-17.911,41.723-27.778,67.051-27.778
		c25.332,0,49.144,9.871,67.058,27.778C326.273,190.184,326.273,250.344,289.3,287.317L289.3,287.317z M289.3,287.317"/>
</g>
</svg>
