<svg id="Capa_1" data-name="Capa 1" xmlns="http://www.w3.org/2000/svg" viewBox="0 0 384 384">
  <defs>
    <style>
      .cls-1 {
        fill: #cd2028;
      }
    </style>
  </defs>
  <title>pdf</title>
  <path class="cls-1" d="M64,0V80H0V224H64V384H288l96-96V0ZM16,208V96H256V208ZM288,361.38V288h73.38ZM368,272H272v96H80V224H272V80H80V16H368Z"/>
  <path class="cls-1" d="M90.85,130.86a18.2,18.2,0,0,0-3.17-6.58,16.06,16.06,0,0,0-5.81-4.66A20,20,0,0,0,73,117.86H48.8V186.4H62.62V159H70a30.62,30.62,0,0,0,8.93-1.26A18.27,18.27,0,0,0,85.81,154a16.54,16.54,0,0,0,4.42-6.42,24.59,24.59,0,0,0,1.58-9.22A30.5,30.5,0,0,0,90.85,130.86ZM75.44,146.38a9.1,9.1,0,0,1-6.67,2.51H62.62V128h5.76c3.46,0,5.92.91,7.39,2.69S78,135.15,78,138.61,77.14,144.72,75.44,146.38Z"/>
  <path class="cls-1" d="M153.36,137.44A29.45,29.45,0,0,0,150,126.93a16.63,16.63,0,0,0-6.86-6.72c-3-1.57-6.82-2.37-11.63-2.37H108.9v68.54h21.82a27,27,0,0,0,11.42-2.11,16.54,16.54,0,0,0,7.2-6.43,30.09,30.09,0,0,0,3.79-11,97.57,97.57,0,0,0,1.09-15.7A99.09,99.09,0,0,0,153.36,137.44ZM140,163.26a23.3,23.3,0,0,1-1.73,7.6,8.56,8.56,0,0,1-3.5,4.13,11.87,11.87,0,0,1-5.86,1.25h-6.14V128h5.84a11.64,11.64,0,0,1,6.29,1.5,9,9,0,0,1,3.57,4.4,25.35,25.35,0,0,1,1.58,7.34c.24,3,.38,6.38.38,10.29Q140.38,158.58,140,163.26Z"/>
  <polygon class="cls-1" points="211.23 129.18 211.23 117.86 172.93 117.86 172.93 186.4 186.75 186.4 186.75 156.64 209.79 156.64 209.79 145.31 186.75 145.31 186.75 129.18 211.23 129.18"/>
</svg>
