<svg id="Layer_1" data-name="Layer 1" xmlns="http://www.w3.org/2000/svg" viewBox="0 0 79.7 79.7">
  <defs>
    <style>
      .cls-1 {
        fill: #fff;
      }
    </style>
  </defs>
  <title>All icons</title>
  <g>
    <path d="M28.35,40H38.49V29.87a42,42,0,0,0-9,1.17A42,42,0,0,0,28.35,40Z"/>
    <path d="M27.67,29.2A23.73,23.73,0,0,1,33.1,18.95,23.2,23.2,0,0,0,17.41,34.64,23.67,23.67,0,0,1,27.67,29.2Z"/>
    <circle cx="16.52" cy="18.23" r="2.27"/>
    <path d="M38.49,27.66V18.24c-3.41.72-6.43,4.7-8.27,10.33A45.53,45.53,0,0,1,38.49,27.66Z"/>
    <path d="M40.7,18.24v9.42a45.77,45.77,0,0,1,8.3.94C47.16,22.93,44.11,18.95,40.7,18.24Z"/>
    <path d="M16.73,42.23c.71,3.41,4.68,6.45,10.34,8.3a45.76,45.76,0,0,1-.94-8.3Z"/>
    <path d="M16.74,40h9.4a45.58,45.58,0,0,1,.92-8.26C21.43,33.59,17.46,36.61,16.74,40Z"/>
    <path d="M16.61,30.25l.88-1.47q.37-.66.77-1.29l3.62-6a6.26,6.26,0,1,0-10.69.08Zm-.09-16.41a4.4,4.4,0,1,1-4.4,4.4A4.4,4.4,0,0,1,16.52,13.84Z"/>
    <circle cx="46.89" cy="47.39" r="0.2"/>
    <path d="M56.45,54.63h0l3.29-3.51H47.93v8.54H59.76L56.45,56A1,1,0,0,1,56.45,54.63Z"/>
    <path d="M39.85,0A39.7,39.7,0,0,0,12.53,10.85a8.39,8.39,0,0,1,12,9.94A25.31,25.31,0,0,1,64.91,41.12a25.77,25.77,0,0,1-.16,2.82,1.11,1.11,0,0,1-2.2-.24A23.12,23.12,0,0,0,46.14,19a23.69,23.69,0,0,1,5.41,10.26,29.16,29.16,0,0,1,7,2.89A1.11,1.11,0,1,1,57.39,34a25.75,25.75,0,0,0-5.23-2.3,45.74,45.74,0,0,1,.92,8A1.11,1.11,0,0,1,52,40.82h0a1.11,1.11,0,0,1-1.11-1.07A41.72,41.72,0,0,0,49.69,31a42.83,42.83,0,0,0-9-1.14V40h5.4a1.11,1.11,0,1,1,0,2.21H40.7v5.4a1.11,1.11,0,1,1-2.21,0v-5.4H28.35a42.83,42.83,0,0,0,1.14,9,41.63,41.63,0,0,0,8.73,1.16,1.11,1.11,0,0,1,0,2.21h0a45.69,45.69,0,0,1-8-.92,25.75,25.75,0,0,0,2.3,5.24A1.11,1.11,0,0,1,30.58,60a29.17,29.17,0,0,1-2.89-7,23.62,23.62,0,0,1-10.27-5.43A23.15,23.15,0,0,0,39.59,64.23a23.51,23.51,0,0,0,2.64-.15,1.09,1.09,0,0,1,1.22,1,1.1,1.1,0,0,1-1,1.22,25.33,25.33,0,0,1-28.2-25.16,25.21,25.21,0,0,1,1.41-8.32L9.38,22.65a8.36,8.36,0,0,1-.5-7.87A39.84,39.84,0,1,0,39.85,0Zm23.1,61a1.06,1.06,0,0,1-.87.66H47.93V72.72a1,1,0,0,1-2,0V49.33a2.34,2.34,0,0,1-1.21-1.92v-.05a2.19,2.19,0,0,1,2.18-2.18h0a2.22,2.22,0,0,1,2.21,2.21,2.32,2.32,0,0,1-.84,1.71H62a.92.92,0,0,1,.93.53.91.91,0,0,1-.17,1.06l-4.23,4.57,4.24,4.61A1,1,0,0,1,62.94,61Z"/>
    <path class="cls-1" d="M9.38,22.65l6.3,10.15A25.32,25.32,0,0,0,39.59,66.44a25.59,25.59,0,0,0,2.88-.16,1.1,1.1,0,0,0,1-1.22,1.09,1.09,0,0,0-1.22-1,23.51,23.51,0,0,1-2.64.15A23.15,23.15,0,0,1,17.43,47.64a23.62,23.62,0,0,0,10.27,5.43,29.17,29.17,0,0,0,2.89,7,1.11,1.11,0,0,0,1.9-1.13,25.75,25.75,0,0,1-2.3-5.24,45.69,45.69,0,0,0,8,.92h0a1.11,1.11,0,0,0,0-2.21,41.63,41.63,0,0,1-8.73-1.16,42.83,42.83,0,0,1-1.14-9H38.49v5.4a1.11,1.11,0,1,0,2.21,0v-5.4h5.4a1.11,1.11,0,1,0,0-2.21H40.7V29.87a42.83,42.83,0,0,1,9,1.14,41.72,41.72,0,0,1,1.16,8.73A1.11,1.11,0,0,0,52,40.82h0a1.11,1.11,0,0,0,1.07-1.14,45.74,45.74,0,0,0-.92-8A25.75,25.75,0,0,1,57.39,34a1.11,1.11,0,1,0,1.13-1.9,29.16,29.16,0,0,0-7-2.89A23.69,23.69,0,0,0,46.14,19,23.12,23.12,0,0,1,62.56,43.69a1.11,1.11,0,0,0,2.2.24,25.77,25.77,0,0,0,.16-2.82A25.31,25.31,0,0,0,24.51,20.8a8.39,8.39,0,0,0-12-9.94,40.07,40.07,0,0,0-3.64,3.92,8.36,8.36,0,0,0,.5,7.87ZM40.7,18.24c3.41.71,6.46,4.69,8.3,10.36a45.77,45.77,0,0,0-8.3-.94Zm-24,24h9.4a45.76,45.76,0,0,0,.94,8.3C21.41,48.68,17.44,45.64,16.73,42.23Zm0-2.21c.72-3.41,4.69-6.42,10.31-8.26A45.58,45.58,0,0,0,26.13,40Zm21.75,0H28.35a42,42,0,0,1,1.17-9,42,42,0,0,1,9-1.17Zm0-21.77v9.41a45.53,45.53,0,0,0-8.27.92C32.06,22.94,35.08,19,38.49,18.24Zm-5.39.7A23.73,23.73,0,0,0,27.67,29.2a23.67,23.67,0,0,0-10.26,5.44A23.2,23.2,0,0,1,33.1,18.95ZM16.52,12a6.26,6.26,0,0,1,5.37,9.46l-3.62,6q-.41.63-.77,1.29l-.88,1.47L11.2,21.52A6.25,6.25,0,0,1,16.52,12Z"/>
    <path class="cls-1" d="M58.54,55.26l4.23-4.57a.91.91,0,0,0,.17-1.06A.92.92,0,0,0,62,49.1H48.27a2.32,2.32,0,0,0,.84-1.71,2.22,2.22,0,0,0-2.21-2.21h0a2.19,2.19,0,0,0-2.18,2.18v.05a2.34,2.34,0,0,0,1.21,1.92V72.72a1,1,0,0,0,2,0V61.67H62.08a1.06,1.06,0,0,0,.87-.66,1,1,0,0,0-.16-1.13ZM46.89,47.59a.2.2,0,1,1,.2-.2A.2.2,0,0,1,46.89,47.59Zm1,12.06V51.11H59.74l-3.29,3.51h0a1,1,0,0,0,0,1.38l3.31,3.64Z"/>
    <path class="cls-1" d="M16.52,22.63a4.4,4.4,0,1,0-4.4-4.4A4.4,4.4,0,0,0,16.52,22.63Zm0-6.66a2.27,2.27,0,1,1-2.27,2.27A2.27,2.27,0,0,1,16.52,16Z"/>
  </g>
</svg>
