<svg id="Layer_1" data-name="Layer 1" xmlns="http://www.w3.org/2000/svg" viewBox="0 0 80 80">
  <defs>
    <style>
      .cls-1 {
        fill: #fff;
      }
    </style>
  </defs>
  <title>All icons</title>
  <g>
    <path d="M42.89,46.55H37.26a.79.79,0,0,0-.79.79v20h7.21v-20A.79.79,0,0,0,42.89,46.55Z"/>
    <path d="M61.09,30H55.46a.79.79,0,0,0-.79.79V67.34h7.21V30.77A.79.79,0,0,0,61.09,30Z"/>
    <path d="M13.33,69.64a1.09,1.09,0,0,1-.24,0,40,40,0,0,0,53.82,0,1.1,1.1,0,0,1-.21,0Z"/>
    <path d="M24.7,56.19H19.07a.79.79,0,0,0-.79.79V67.34h7.21V57A.79.79,0,0,0,24.7,56.19Z"/>
    <path d="M80,40A40,40,0,1,0,12.24,68.78a1.11,1.11,0,0,1-.06-.29,1.15,1.15,0,0,1,1.15-1.15H16V57a3.09,3.09,0,0,1,3.09-3.09H24.7A3.09,3.09,0,0,1,27.78,57V67.34h6.39v-20a3.09,3.09,0,0,1,3.09-3.09h5.63A3.09,3.09,0,0,1,46,47.34v20h6.39V30.77a3.09,3.09,0,0,1,3.09-3.09h5.63a3.09,3.09,0,0,1,3.09,3.09V67.34H66.7a1.15,1.15,0,0,1,1.15,1.15,1.1,1.1,0,0,1-.05.26A39.87,39.87,0,0,0,80,40ZM19.3,46.82a1.15,1.15,0,1,1,1.15-1.15A1.15,1.15,0,0,1,19.3,46.82ZM64.18,18.65a1.15,1.15,0,0,1-2.3,0V14.77L49.72,26.93a1.15,1.15,0,0,1-1.62,0l-4.28-4.28L24,42.48a1.15,1.15,0,1,1-1.62-1.62L43,20.22a1.15,1.15,0,0,1,1.62,0l4.28,4.28L60.26,13.15H56a1.15,1.15,0,0,1,0-2.3h7a1.14,1.14,0,0,1,1.2,1.2s0,0,0,.06Z"/>
    <path class="cls-1" d="M66.7,67.34H64.18V30.77a3.09,3.09,0,0,0-3.09-3.09H55.46a3.09,3.09,0,0,0-3.09,3.09V67.34H46v-20a3.09,3.09,0,0,0-3.09-3.09H37.26a3.09,3.09,0,0,0-3.09,3.09v20H27.78V57A3.09,3.09,0,0,0,24.7,53.9H19.07A3.09,3.09,0,0,0,16,57V67.34H13.33a1.15,1.15,0,0,0-1.15,1.15,1.11,1.11,0,0,0,.06.29c.28.27.56.55.85.81a1.09,1.09,0,0,0,.24,0H66.7a1.1,1.1,0,0,0,.21,0c.3-.27.59-.56.88-.84a1.1,1.1,0,0,0,.05-.26A1.15,1.15,0,0,0,66.7,67.34Zm-41.21,0H18.28V57a.79.79,0,0,1,.79-.79H24.7a.79.79,0,0,1,.79.79Zm18.2,0H36.47v-20a.79.79,0,0,1,.79-.79h5.63a.79.79,0,0,1,.79.79Zm18.2,0H54.67V30.77a.79.79,0,0,1,.79-.79h5.63a.79.79,0,0,1,.79.79Z"/>
    <path class="cls-1" d="M63.84,11.18a1.14,1.14,0,0,0-.87-.33H56a1.15,1.15,0,0,0,0,2.3h4.29L48.91,24.5l-4.28-4.28a1.15,1.15,0,0,0-1.62,0L22.36,40.86A1.15,1.15,0,1,0,24,42.48L43.81,22.65l4.28,4.28a1.15,1.15,0,0,0,1.62,0L61.88,14.77v3.88a1.15,1.15,0,0,0,2.3,0V12.11s0,0,0-.06A1.14,1.14,0,0,0,63.84,11.18Z"/>
    <circle class="cls-1" cx="19.3" cy="45.68" r="1.15"/>
  </g>
</svg>
