<?xml version="1.0" encoding="iso-8859-1"?>
<!-- Generator: Adobe Illustrator 23.0.0, SVG Export Plug-In . SVG Version: 6.00 Build 0)  -->
<svg version="1.1" id="&#x421;&#x43B;&#x43E;&#x439;_1"
	 xmlns="http://www.w3.org/2000/svg" xmlns:xlink="http://www.w3.org/1999/xlink" x="0px" y="0px" viewBox="0 0 48 48" fill="#cd2028"
	 style="enable-background:new 0 0 48 48;" xml:space="preserve">
<g>
	<path d="M14.398,7.199h14.403c0.441,0,0.801-0.355,0.801-0.801c0-0.441-0.36-0.796-0.801-0.796H14.398
		c-0.441,0-0.796,0.355-0.796,0.796C13.602,6.844,13.957,7.199,14.398,7.199L14.398,7.199z M14.398,7.199"/>
	<path d="M33.602,9.602H14.398c-0.441,0-0.796,0.355-0.796,0.796c0,0.446,0.355,0.801,0.796,0.801h19.204
		c0.441,0,0.796-0.355,0.796-0.801C34.398,9.957,34.043,9.602,33.602,9.602L33.602,9.602z M33.602,9.602"/>
	<path d="M33.602,34.398H14.398c-0.441,0-0.796,0.36-0.796,0.801c0,0.442,0.355,0.801,0.796,0.801h19.204
		c0.441,0,0.796-0.359,0.796-0.801C34.398,34.758,34.043,34.398,33.602,34.398L33.602,34.398z M33.602,34.398"/>
	<path d="M33.602,38.398H14.398c-0.441,0-0.796,0.36-0.796,0.801c0,0.442,0.355,0.801,0.796,0.801h19.204
		c0.441,0,0.796-0.359,0.796-0.801C34.398,38.758,34.043,38.398,33.602,38.398L33.602,38.398z M33.602,38.398"/>
	<path d="M40.801,13.602V0H7.199v13.602H0v27.199h4.801v2.398h2.398V48h33.602v-4.801h2.398v-2.398H48V13.602H40.801z M8.801,1.602
		h30.398v12H8.801V1.602z M18.398,22.398H16c-0.441,0-0.801-0.355-0.801-0.796c0-0.446,0.36-0.801,0.801-0.801h2.398
		c0.446,0,0.801,0.355,0.801,0.801C19.199,22.043,18.844,22.398,18.398,22.398L18.398,22.398z M19.199,24.801
		c0,0.441-0.355,0.801-0.801,0.801H16c-0.441,0-0.801-0.36-0.801-0.801C15.199,24.359,15.559,24,16,24h2.398
		C18.844,24,19.199,24.359,19.199,24.801L19.199,24.801z M18.398,19.199H16c-0.441,0-0.801-0.355-0.801-0.801
		c0-0.441,0.36-0.796,0.801-0.796h2.398c0.446,0,0.801,0.355,0.801,0.796C19.199,18.844,18.844,19.199,18.398,19.199L18.398,19.199z
		 M12.801,22.398h-2.403c-0.441,0-0.796-0.355-0.796-0.796c0-0.446,0.355-0.801,0.796-0.801h2.403c0.441,0,0.801,0.355,0.801,0.801
		C13.602,22.043,13.242,22.398,12.801,22.398L12.801,22.398z M13.602,24.801c0,0.441-0.36,0.801-0.801,0.801h-2.403
		c-0.441,0-0.796-0.36-0.796-0.801c0-0.442,0.355-0.801,0.796-0.801h2.403C13.242,24,13.602,24.359,13.602,24.801L13.602,24.801z
		 M12.801,19.199h-2.403c-0.441,0-0.796-0.355-0.796-0.801c0-0.441,0.355-0.796,0.796-0.796h2.403c0.441,0,0.801,0.355,0.801,0.796
		C13.602,18.844,13.242,19.199,12.801,19.199L12.801,19.199z M7.199,25.602H4.801C4.359,25.602,4,25.242,4,24.801
		C4,24.359,4.359,24,4.801,24h2.398C7.641,24,8,24.359,8,24.801C8,25.242,7.641,25.602,7.199,25.602L7.199,25.602z M7.199,22.398
		H4.801C4.359,22.398,4,22.043,4,21.602c0-0.446,0.359-0.801,0.801-0.801h2.398C7.641,20.801,8,21.156,8,21.602
		C8,22.043,7.641,22.398,7.199,22.398L7.199,22.398z M7.199,19.199H4.801C4.359,19.199,4,18.844,4,18.398
		c0-0.441,0.359-0.796,0.801-0.796h2.398C7.641,17.602,8,17.957,8,18.398C8,18.844,7.641,19.199,7.199,19.199L7.199,19.199z
		 M39.199,43.199v3.199H8.801V29.602h30.398V43.199z M40,25.602c-2.207,0-4-1.797-4-4c0-2.207,1.793-4,4-4c2.207,0,4,1.793,4,4
		C44,23.805,42.207,25.602,40,25.602L40,25.602z M40,25.602"/>
	<path d="M42.398,21.602C42.398,22.926,41.324,24,40,24c-1.324,0-2.398-1.074-2.398-2.398c0-1.329,1.074-2.403,2.398-2.403
		C41.324,19.199,42.398,20.273,42.398,21.602L42.398,21.602z M42.398,21.602"/>
</g>
</svg>
