<?xml version="1.0" encoding="utf-8"?>
<!-- Generator: Adobe Illustrator 23.0.0, SVG Export Plug-In . SVG Version: 6.00 Build 0)  -->
<svg version="1.1" id="Слой_1" xmlns="http://www.w3.org/2000/svg" xmlns:xlink="http://www.w3.org/1999/xlink" x="0px" y="0px" fill="#ffffff"
	 viewBox="0 0 392 392" style="enable-background:new 0 0 392 392;" xml:space="preserve">
<style type="text/css">
	.st0{clip-path:url(#SVGID_2_);}
</style>
<g>
	<g>
		<defs>
			<rect id="SVGID_1_" width="392" height="392"/>
		</defs>
		<clipPath id="SVGID_2_">
			<use xlink:href="#SVGID_1_"  style="overflow:visible;"/>
		</clipPath>
		<path class="st0" d="M387.2,364.16l-94.24-94.24c23.36-28.48,37.44-64.96,37.44-104.72C330.4,74,256.4,0,165.2,0
			C73.92,0,0,74,0,165.2s73.92,165.2,165.2,165.2c39.76,0,76.16-14,104.64-37.36l94.24,94.16c6.4,6.4,16.72,6.4,23.12,0
			C393.6,380.88,393.6,370.48,387.2,364.16L387.2,364.16z M165.2,297.52c-73.04,0-132.4-59.36-132.4-132.32S92.16,32.8,165.2,32.8
			c72.96,0,132.4,59.44,132.4,132.4S238.16,297.52,165.2,297.52L165.2,297.52z M165.2,297.52"/>
	</g>
</g>
</svg>
