<?xml version="1.0" encoding="iso-8859-1"?>
<!-- Generator: Adobe Illustrator 23.0.0, SVG Export Plug-In . SVG Version: 6.00 Build 0)  -->
<svg version="1.1" id="Capa_1" xmlns="http://www.w3.org/2000/svg" xmlns:xlink="http://www.w3.org/1999/xlink" x="0px" y="0px" fill="#cd2028"
	 viewBox="-49 141 512 512" style="enable-background:new -49 141 512 512;" xml:space="preserve">
<path d="M192,292V173.501c-32.214,10.578-61.185,55.796-77.17,118.499H192z"/>
<path d="M192,620.499V502h-77.17C130.815,564.703,159.786,609.921,192,620.499z"/>
<path d="M448,322H-34c-8.284,0-15,6.714-15,15v120c0,8.284,6.716,15,15,15h482c8.284,0,15-6.716,15-15V337
	C463,328.714,456.284,322,448,322z M430.418,373.709l-30,60C397.869,438.792,392.684,442,387,442s-10.869-3.208-13.418-8.291
	L357,400.545l-16.582,33.164c-5.098,10.166-21.738,10.166-26.836,0l-28.74-57.495c-1.729-2.122-2.714-4.788-3.034-7.634
	c-0.185,1.734-0.564,3.477-1.39,5.129l-30,60C247.869,438.792,242.684,442,237,442s-10.869-3.208-13.418-8.291L207,400.545
	l-16.582,33.164c-5.098,10.166-21.738,10.166-26.836,0l-30-60c-0.795-1.589-1.137-3.267-1.337-4.935
	c-0.377,3.232-1.597,6.178-3.571,8.421l-28.257,56.514C97.869,438.792,92.684,442,87,442s-10.869-3.208-13.418-8.291L57,400.545
	l-16.582,33.164C37.869,438.792,32.684,442,27,442s-10.869-3.208-13.418-8.291l-30-60c-3.706-7.412-0.703-16.421,6.709-20.127
	c7.397-3.662,16.392-0.718,20.127,6.709L27,393.455l16.582-33.164c5.307-10.649,21.288-11.097,26.836,0L87,393.455l16.582-33.164
	c2.695-5.391,8.364-8.32,14.385-8.262c7.753,0.509,13.916,6.903,14.242,14.509c0.179-5.321,2.985-10.408,8.082-12.957
	c7.427-3.662,16.406-0.718,20.127,6.709L177,393.455l16.582-33.164c5.098-10.166,21.738-10.166,26.836,0L237,393.455l16.582-33.164
	c3.706-7.427,12.715-10.371,20.127-6.709c5.054,2.527,7.839,7.549,8.064,12.819c0.291-7.535,5.649-13.808,13.351-14.313
	c6.182-0.146,12.598,2.813,15.294,8.203L327,393.455l16.582-33.164c5.098-10.166,21.738-10.166,26.836,0L387,393.455l16.582-33.164
	c3.721-7.427,12.7-10.371,20.127-6.709C431.121,357.288,434.124,366.297,430.418,373.709z"/>
<path d="M222,502v118.499c32.214-10.578,61.185-55.796,77.17-118.499H222z"/>
<path d="M222,173.501V292h77.17C283.185,229.297,254.214,184.079,222,173.501z"/>
<path d="M84.019,502H-24.456C16.545,592.022,107.334,653,207,653C152.814,653,105.477,593.326,84.019,502z"/>
<path d="M207,653c99.666,0,190.455-60.978,231.456-151H329.981C308.523,593.326,261.186,653,207,653z"/>
<path d="M207,141c-99.666,0-190.455,60.978-231.456,151H84.019C105.477,200.674,152.814,141,207,141z"/>
<path d="M329.981,292h108.475C397.455,201.978,306.666,141,207,141C261.186,141,308.523,200.674,329.981,292z"/>
</svg>
